<mxfile host="Electron" modified="2023-11-07T10:56:51.147Z" agent="Mozilla/5.0 (X11; Linux x86_64) AppleWebKit/537.36 (KHTML, like Gecko) draw.io/22.0.3 Chrome/114.0.5735.289 Electron/25.8.4 Safari/537.36" etag="FETO-myCuMTacpHB7U8s" version="22.0.3" type="device">
  <diagram name="Page-1" id="xzOfMFNA53jHMCTkcLgH">
    <mxGraphModel dx="1207" dy="938" grid="1" gridSize="10" guides="1" tooltips="1" connect="1" arrows="1" fold="1" page="1" pageScale="1" pageWidth="827" pageHeight="1169" math="0" shadow="0">
      <root>
        <mxCell id="0" />
        <mxCell id="1" parent="0" />
        <mxCell id="JYj8p6GNNAYbOqmJ5a7p-1" value="lane_detection" style="rounded=0;whiteSpace=wrap;html=1;fontSize=18;" parent="1" vertex="1">
          <mxGeometry x="180" y="610" width="150" height="60" as="geometry" />
        </mxCell>
        <mxCell id="JYj8p6GNNAYbOqmJ5a7p-2" value="trajectory" style="rounded=0;whiteSpace=wrap;html=1;fontSize=18;" parent="1" vertex="1">
          <mxGeometry x="370" y="610" width="120" height="60" as="geometry" />
        </mxCell>
        <mxCell id="JYj8p6GNNAYbOqmJ5a7p-3" value="state_machine" style="rounded=0;whiteSpace=wrap;html=1;fontSize=18;" parent="1" vertex="1">
          <mxGeometry x="630" y="370" width="120" height="60" as="geometry" />
        </mxCell>
        <mxCell id="JYj8p6GNNAYbOqmJ5a7p-4" value="startbox" style="rounded=0;whiteSpace=wrap;html=1;fontSize=18;" parent="1" vertex="1">
          <mxGeometry x="180" y="700" width="150" height="60" as="geometry" />
        </mxCell>
        <mxCell id="JYj8p6GNNAYbOqmJ5a7p-5" value="controller" style="rounded=0;whiteSpace=wrap;html=1;fontSize=18;" parent="1" vertex="1">
          <mxGeometry x="540" y="780" width="120" height="60" as="geometry" />
        </mxCell>
        <mxCell id="JYj8p6GNNAYbOqmJ5a7p-6" value="sign_detection" style="rounded=0;whiteSpace=wrap;html=1;dashed=1;fontSize=18;" parent="1" vertex="1">
          <mxGeometry x="180" y="860" width="150" height="60" as="geometry" />
        </mxCell>
        <mxCell id="JYj8p6GNNAYbOqmJ5a7p-7" value="configuration" style="rounded=0;whiteSpace=wrap;html=1;fontSize=18;" parent="1" vertex="1">
          <mxGeometry x="180" y="370" width="120" height="60" as="geometry" />
        </mxCell>
        <mxCell id="JYj8p6GNNAYbOqmJ5a7p-8" value="launch" style="rounded=0;whiteSpace=wrap;html=1;fontSize=18;" parent="1" vertex="1">
          <mxGeometry x="30" y="370" width="120" height="60" as="geometry" />
        </mxCell>
        <mxCell id="JYj8p6GNNAYbOqmJ5a7p-9" value="manual_mode" style="rounded=0;whiteSpace=wrap;html=1;fontSize=18;dashed=1;" parent="1" vertex="1">
          <mxGeometry x="370" y="1020" width="120" height="60" as="geometry" />
        </mxCell>
        <mxCell id="JYj8p6GNNAYbOqmJ5a7p-10" value="object_detection" style="rounded=0;whiteSpace=wrap;html=1;fillStyle=auto;fillColor=default;strokeColor=default;dashed=1;fontSize=18;" parent="1" vertex="1">
          <mxGeometry x="180" y="940" width="160" height="60" as="geometry" />
        </mxCell>
        <mxCell id="JYj8p6GNNAYbOqmJ5a7p-11" value="parking_detection" style="rounded=0;whiteSpace=wrap;html=1;dashed=1;fontSize=18;" parent="1" vertex="1">
          <mxGeometry x="180" y="780" width="150" height="60" as="geometry" />
        </mxCell>
        <mxCell id="JYj8p6GNNAYbOqmJ5a7p-12" value="utils" style="rounded=0;whiteSpace=wrap;html=1;fontSize=18;" parent="1" vertex="1">
          <mxGeometry x="330" y="370" width="120" height="60" as="geometry" />
        </mxCell>
        <mxCell id="JYj8p6GNNAYbOqmJ5a7p-13" value="watchdog" style="rounded=0;whiteSpace=wrap;html=1;fontSize=18;" parent="1" vertex="1">
          <mxGeometry x="480" y="370" width="120" height="60" as="geometry" />
        </mxCell>
        <mxCell id="JYj8p6GNNAYbOqmJ5a7p-14" value="parking" style="rounded=0;whiteSpace=wrap;html=1;dashed=1;fontSize=18;" parent="1" vertex="1">
          <mxGeometry x="370" y="780" width="120" height="60" as="geometry" />
        </mxCell>
        <mxCell id="aanhbF6bJ1fq_lnxb591-1" value="camera" style="rounded=1;whiteSpace=wrap;html=1;fontSize=18;" parent="1" vertex="1">
          <mxGeometry x="20" y="780" width="120" height="60" as="geometry" />
        </mxCell>
        <mxCell id="aanhbF6bJ1fq_lnxb591-2" value="" style="endArrow=classic;html=1;rounded=0;exitX=1;exitY=0.5;exitDx=0;exitDy=0;entryX=0;entryY=0.5;entryDx=0;entryDy=0;edgeStyle=orthogonalEdgeStyle;" parent="1" source="aanhbF6bJ1fq_lnxb591-1" target="JYj8p6GNNAYbOqmJ5a7p-11" edge="1">
          <mxGeometry width="50" height="50" relative="1" as="geometry">
            <mxPoint x="410" y="800" as="sourcePoint" />
            <mxPoint x="460" y="750" as="targetPoint" />
          </mxGeometry>
        </mxCell>
        <mxCell id="aanhbF6bJ1fq_lnxb591-3" value="" style="endArrow=classic;html=1;rounded=0;exitX=1;exitY=0.5;exitDx=0;exitDy=0;entryX=0;entryY=0.5;entryDx=0;entryDy=0;edgeStyle=orthogonalEdgeStyle;" parent="1" source="aanhbF6bJ1fq_lnxb591-1" target="JYj8p6GNNAYbOqmJ5a7p-1" edge="1">
          <mxGeometry width="50" height="50" relative="1" as="geometry">
            <mxPoint x="410" y="800" as="sourcePoint" />
            <mxPoint x="460" y="750" as="targetPoint" />
          </mxGeometry>
        </mxCell>
        <mxCell id="aanhbF6bJ1fq_lnxb591-4" value="" style="endArrow=classic;html=1;rounded=0;edgeStyle=orthogonalEdgeStyle;exitX=1;exitY=0.5;exitDx=0;exitDy=0;entryX=0;entryY=0.5;entryDx=0;entryDy=0;" parent="1" source="aanhbF6bJ1fq_lnxb591-1" target="JYj8p6GNNAYbOqmJ5a7p-6" edge="1">
          <mxGeometry width="50" height="50" relative="1" as="geometry">
            <mxPoint x="410" y="800" as="sourcePoint" />
            <mxPoint x="460" y="750" as="targetPoint" />
          </mxGeometry>
        </mxCell>
        <mxCell id="aanhbF6bJ1fq_lnxb591-5" value="" style="endArrow=classic;html=1;rounded=0;exitX=1;exitY=0.5;exitDx=0;exitDy=0;edgeStyle=orthogonalEdgeStyle;entryX=0;entryY=0.5;entryDx=0;entryDy=0;" parent="1" source="aanhbF6bJ1fq_lnxb591-1" target="JYj8p6GNNAYbOqmJ5a7p-4" edge="1">
          <mxGeometry width="50" height="50" relative="1" as="geometry">
            <mxPoint x="410" y="800" as="sourcePoint" />
            <mxPoint x="460" y="750" as="targetPoint" />
          </mxGeometry>
        </mxCell>
        <mxCell id="aanhbF6bJ1fq_lnxb591-6" value="" style="endArrow=classic;html=1;rounded=0;exitX=1;exitY=0.5;exitDx=0;exitDy=0;edgeStyle=orthogonalEdgeStyle;entryX=0;entryY=0.5;entryDx=0;entryDy=0;" parent="1" source="aanhbF6bJ1fq_lnxb591-1" target="JYj8p6GNNAYbOqmJ5a7p-10" edge="1">
          <mxGeometry width="50" height="50" relative="1" as="geometry">
            <mxPoint x="400" y="920" as="sourcePoint" />
            <mxPoint x="450" y="870" as="targetPoint" />
          </mxGeometry>
        </mxCell>
        <mxCell id="aanhbF6bJ1fq_lnxb591-7" value="macro definition" style="text;html=1;strokeColor=none;fillColor=none;align=center;verticalAlign=middle;whiteSpace=wrap;rounded=0;fontSize=18;" parent="1" vertex="1">
          <mxGeometry x="180" y="330" width="120" height="30" as="geometry" />
        </mxCell>
        <mxCell id="aanhbF6bJ1fq_lnxb591-8" value="" style="endArrow=none;html=1;rounded=0;" parent="1" edge="1">
          <mxGeometry width="50" height="50" relative="1" as="geometry">
            <mxPoint x="31" y="450" as="sourcePoint" />
            <mxPoint x="796" y="450" as="targetPoint" />
          </mxGeometry>
        </mxCell>
        <mxCell id="aanhbF6bJ1fq_lnxb591-9" value="helper functions" style="text;html=1;strokeColor=none;fillColor=none;align=center;verticalAlign=middle;whiteSpace=wrap;rounded=0;fontSize=18;" parent="1" vertex="1">
          <mxGeometry x="340" y="330" width="100" height="30" as="geometry" />
        </mxCell>
        <mxCell id="aanhbF6bJ1fq_lnxb591-10" value="launch programm (.py)" style="text;html=1;strokeColor=none;fillColor=none;align=center;verticalAlign=middle;whiteSpace=wrap;rounded=0;fontSize=18;" parent="1" vertex="1">
          <mxGeometry x="30" y="330" width="130" height="30" as="geometry" />
        </mxCell>
        <mxCell id="aanhbF6bJ1fq_lnxb591-11" value="&lt;font style=&quot;font-size: 22px;&quot;&gt;legend&lt;/font&gt;" style="text;html=1;strokeColor=none;fillColor=none;align=center;verticalAlign=middle;whiteSpace=wrap;rounded=0;" parent="1" vertex="1">
          <mxGeometry x="30" y="10" width="60" height="30" as="geometry" />
        </mxCell>
        <mxCell id="aanhbF6bJ1fq_lnxb591-12" value="real world object" style="rounded=1;whiteSpace=wrap;html=1;fontSize=18;" parent="1" vertex="1">
          <mxGeometry x="20" y="50" width="110" height="40" as="geometry" />
        </mxCell>
        <mxCell id="aanhbF6bJ1fq_lnxb591-13" value="" style="endArrow=none;dashed=1;html=1;dashPattern=1 3;strokeWidth=2;rounded=0;edgeStyle=orthogonalEdgeStyle;" parent="1" edge="1">
          <mxGeometry width="50" height="50" relative="1" as="geometry">
            <mxPoint x="20" y="235" as="sourcePoint" />
            <mxPoint x="155.22999999999996" y="14.73" as="targetPoint" />
          </mxGeometry>
        </mxCell>
        <mxCell id="aanhbF6bJ1fq_lnxb591-14" value="code file" style="rounded=0;whiteSpace=wrap;html=1;fontSize=18;" parent="1" vertex="1">
          <mxGeometry x="20" y="100" width="110" height="50" as="geometry" />
        </mxCell>
        <mxCell id="aanhbF6bJ1fq_lnxb591-15" value="code file for specialization" style="rounded=0;whiteSpace=wrap;html=1;dashed=1;fontSize=18;" parent="1" vertex="1">
          <mxGeometry x="20" y="160" width="110" height="50" as="geometry" />
        </mxCell>
        <mxCell id="aanhbF6bJ1fq_lnxb591-16" value="" style="endArrow=classic;html=1;rounded=0;edgeStyle=orthogonalEdgeStyle;exitX=1;exitY=0.5;exitDx=0;exitDy=0;entryX=0;entryY=0.5;entryDx=0;entryDy=0;" parent="1" source="JYj8p6GNNAYbOqmJ5a7p-11" target="JYj8p6GNNAYbOqmJ5a7p-14" edge="1">
          <mxGeometry width="50" height="50" relative="1" as="geometry">
            <mxPoint x="320" y="730" as="sourcePoint" />
            <mxPoint x="410" y="810" as="targetPoint" />
            <Array as="points">
              <mxPoint x="320" y="810" />
              <mxPoint x="320" y="810" />
            </Array>
          </mxGeometry>
        </mxCell>
        <mxCell id="aanhbF6bJ1fq_lnxb591-17" value="" style="endArrow=classic;html=1;rounded=0;edgeStyle=orthogonalEdgeStyle;exitX=1;exitY=0.5;exitDx=0;exitDy=0;entryX=0;entryY=0.5;entryDx=0;entryDy=0;" parent="1" source="JYj8p6GNNAYbOqmJ5a7p-1" target="JYj8p6GNNAYbOqmJ5a7p-2" edge="1">
          <mxGeometry width="50" height="50" relative="1" as="geometry">
            <mxPoint x="380" y="820" as="sourcePoint" />
            <mxPoint x="420" y="820" as="targetPoint" />
          </mxGeometry>
        </mxCell>
        <mxCell id="aanhbF6bJ1fq_lnxb591-18" value="&lt;font style=&quot;font-size: 22px;&quot;&gt;input&lt;/font&gt;" style="text;html=1;strokeColor=none;fillColor=none;align=center;verticalAlign=middle;whiteSpace=wrap;rounded=0;" parent="1" vertex="1">
          <mxGeometry x="50" y="480" width="60" height="30" as="geometry" />
        </mxCell>
        <mxCell id="aanhbF6bJ1fq_lnxb591-19" value="&lt;font style=&quot;font-size: 22px;&quot;&gt;prosessing&lt;/font&gt;" style="text;html=1;strokeColor=none;fillColor=none;align=center;verticalAlign=middle;whiteSpace=wrap;rounded=0;" parent="1" vertex="1">
          <mxGeometry x="359" y="480" width="150" height="30" as="geometry" />
        </mxCell>
        <mxCell id="aanhbF6bJ1fq_lnxb591-20" value="&lt;font style=&quot;font-size: 22px;&quot;&gt;special use files&lt;/font&gt;" style="text;html=1;strokeColor=none;fillColor=none;align=center;verticalAlign=middle;whiteSpace=wrap;rounded=0;" parent="1" vertex="1">
          <mxGeometry x="319" y="270" width="190" height="30" as="geometry" />
        </mxCell>
        <mxCell id="aanhbF6bJ1fq_lnxb591-21" value="error handeling" style="text;html=1;strokeColor=none;fillColor=none;align=center;verticalAlign=middle;whiteSpace=wrap;rounded=0;fontSize=18;" parent="1" vertex="1">
          <mxGeometry x="490" y="330" width="100" height="30" as="geometry" />
        </mxCell>
        <mxCell id="aanhbF6bJ1fq_lnxb591-22" value="?" style="rounded=1;whiteSpace=wrap;html=1;fontSize=18;" parent="1" vertex="1">
          <mxGeometry x="20" y="1020" width="120" height="60" as="geometry" />
        </mxCell>
        <mxCell id="aanhbF6bJ1fq_lnxb591-23" value="" style="endArrow=classic;html=1;rounded=0;edgeStyle=orthogonalEdgeStyle;exitX=1;exitY=0.5;exitDx=0;exitDy=0;entryX=0;entryY=0.5;entryDx=0;entryDy=0;" parent="1" source="aanhbF6bJ1fq_lnxb591-22" target="JYj8p6GNNAYbOqmJ5a7p-9" edge="1">
          <mxGeometry width="50" height="50" relative="1" as="geometry">
            <mxPoint x="310" y="820" as="sourcePoint" />
            <mxPoint x="350" y="820" as="targetPoint" />
          </mxGeometry>
        </mxCell>
        <mxCell id="aanhbF6bJ1fq_lnxb591-24" value="keeps track of states" style="text;html=1;strokeColor=none;fillColor=none;align=center;verticalAlign=middle;whiteSpace=wrap;rounded=0;fontSize=18;" parent="1" vertex="1">
          <mxGeometry x="625" y="330" width="130" height="30" as="geometry" />
        </mxCell>
        <mxCell id="aanhbF6bJ1fq_lnxb591-26" value="&lt;font style=&quot;font-size: 22px;&quot;&gt;hardware commands&lt;/font&gt;" style="text;html=1;strokeColor=none;fillColor=none;align=center;verticalAlign=middle;whiteSpace=wrap;rounded=0;" parent="1" vertex="1">
          <mxGeometry x="520" y="480" width="160" height="30" as="geometry" />
        </mxCell>
        <mxCell id="aanhbF6bJ1fq_lnxb591-28" value="&lt;font style=&quot;font-size: 22px;&quot;&gt;detection&lt;/font&gt;" style="text;html=1;strokeColor=none;fillColor=none;align=center;verticalAlign=middle;whiteSpace=wrap;rounded=0;" parent="1" vertex="1">
          <mxGeometry x="180" y="480" width="150" height="30" as="geometry" />
        </mxCell>
        <mxCell id="aanhbF6bJ1fq_lnxb591-29" value="&lt;font style=&quot;font-size: 22px;&quot;&gt;output&lt;/font&gt;" style="text;html=1;strokeColor=none;fillColor=none;align=center;verticalAlign=middle;whiteSpace=wrap;rounded=0;" parent="1" vertex="1">
          <mxGeometry x="720" y="480" width="60" height="30" as="geometry" />
        </mxCell>
        <mxCell id="aanhbF6bJ1fq_lnxb591-30" value="uC / engine" style="rounded=1;whiteSpace=wrap;html=1;fontSize=18;" parent="1" vertex="1">
          <mxGeometry x="690" y="780" width="120" height="60" as="geometry" />
        </mxCell>
        <mxCell id="aanhbF6bJ1fq_lnxb591-31" value="" style="endArrow=classic;html=1;rounded=0;edgeStyle=orthogonalEdgeStyle;entryX=0;entryY=0.5;entryDx=0;entryDy=0;exitX=1;exitY=0.5;exitDx=0;exitDy=0;" parent="1" source="JYj8p6GNNAYbOqmJ5a7p-5" target="aanhbF6bJ1fq_lnxb591-30" edge="1">
          <mxGeometry width="50" height="50" relative="1" as="geometry">
            <mxPoint x="660" y="710" as="sourcePoint" />
            <mxPoint x="500" y="740" as="targetPoint" />
          </mxGeometry>
        </mxCell>
        <mxCell id="aanhbF6bJ1fq_lnxb591-32" value="" style="endArrow=classic;html=1;rounded=0;edgeStyle=orthogonalEdgeStyle;exitX=1;exitY=0.5;exitDx=0;exitDy=0;entryX=0;entryY=0.5;entryDx=0;entryDy=0;" parent="1" source="JYj8p6GNNAYbOqmJ5a7p-4" target="JYj8p6GNNAYbOqmJ5a7p-5" edge="1">
          <mxGeometry width="50" height="50" relative="1" as="geometry">
            <mxPoint x="310" y="650" as="sourcePoint" />
            <mxPoint x="350" y="650" as="targetPoint" />
            <Array as="points">
              <mxPoint x="510" y="730" />
              <mxPoint x="510" y="810" />
            </Array>
          </mxGeometry>
        </mxCell>
        <mxCell id="aanhbF6bJ1fq_lnxb591-33" value="" style="endArrow=classic;html=1;rounded=0;edgeStyle=orthogonalEdgeStyle;exitX=1;exitY=0.5;exitDx=0;exitDy=0;entryX=0;entryY=0.5;entryDx=0;entryDy=0;" parent="1" source="JYj8p6GNNAYbOqmJ5a7p-2" target="JYj8p6GNNAYbOqmJ5a7p-5" edge="1">
          <mxGeometry width="50" height="50" relative="1" as="geometry">
            <mxPoint x="320" y="660" as="sourcePoint" />
            <mxPoint x="360" y="660" as="targetPoint" />
            <Array as="points">
              <mxPoint x="510" y="640" />
              <mxPoint x="510" y="810" />
            </Array>
          </mxGeometry>
        </mxCell>
        <mxCell id="aanhbF6bJ1fq_lnxb591-34" value="" style="endArrow=classic;html=1;rounded=0;edgeStyle=orthogonalEdgeStyle;exitX=1;exitY=0.5;exitDx=0;exitDy=0;entryX=0;entryY=0.5;entryDx=0;entryDy=0;" parent="1" source="JYj8p6GNNAYbOqmJ5a7p-9" target="JYj8p6GNNAYbOqmJ5a7p-5" edge="1">
          <mxGeometry width="50" height="50" relative="1" as="geometry">
            <mxPoint x="330" y="670" as="sourcePoint" />
            <mxPoint x="370" y="670" as="targetPoint" />
            <Array as="points">
              <mxPoint x="510" y="1050" />
              <mxPoint x="510" y="810" />
            </Array>
          </mxGeometry>
        </mxCell>
        <mxCell id="aanhbF6bJ1fq_lnxb591-35" value="" style="endArrow=classic;html=1;rounded=0;edgeStyle=orthogonalEdgeStyle;entryX=0;entryY=0.5;entryDx=0;entryDy=0;exitX=1;exitY=0.5;exitDx=0;exitDy=0;" parent="1" source="JYj8p6GNNAYbOqmJ5a7p-14" target="JYj8p6GNNAYbOqmJ5a7p-5" edge="1">
          <mxGeometry width="50" height="50" relative="1" as="geometry">
            <mxPoint x="480" y="810" as="sourcePoint" />
            <mxPoint x="380" y="680" as="targetPoint" />
          </mxGeometry>
        </mxCell>
        <mxCell id="aanhbF6bJ1fq_lnxb591-36" value="?" style="rounded=0;whiteSpace=wrap;html=1;dashed=1;fontSize=18;" parent="1" vertex="1">
          <mxGeometry x="370" y="860" width="120" height="60" as="geometry" />
        </mxCell>
        <mxCell id="aanhbF6bJ1fq_lnxb591-37" value="?" style="rounded=0;whiteSpace=wrap;html=1;fillStyle=auto;fillColor=default;strokeColor=default;dashed=1;fontSize=18;" parent="1" vertex="1">
          <mxGeometry x="370" y="940" width="120" height="60" as="geometry" />
        </mxCell>
        <mxCell id="aanhbF6bJ1fq_lnxb591-41" value="" style="endArrow=classic;html=1;rounded=0;edgeStyle=orthogonalEdgeStyle;entryX=0;entryY=0.5;entryDx=0;entryDy=0;exitX=1;exitY=0.5;exitDx=0;exitDy=0;" parent="1" source="JYj8p6GNNAYbOqmJ5a7p-6" target="aanhbF6bJ1fq_lnxb591-36" edge="1">
          <mxGeometry width="50" height="50" relative="1" as="geometry">
            <mxPoint x="635" y="820" as="sourcePoint" />
            <mxPoint x="680" y="820" as="targetPoint" />
          </mxGeometry>
        </mxCell>
        <mxCell id="aanhbF6bJ1fq_lnxb591-42" value="" style="endArrow=classic;html=1;rounded=0;edgeStyle=orthogonalEdgeStyle;entryX=0;entryY=0.5;entryDx=0;entryDy=0;exitX=1;exitY=0.5;exitDx=0;exitDy=0;" parent="1" source="JYj8p6GNNAYbOqmJ5a7p-10" target="aanhbF6bJ1fq_lnxb591-37" edge="1">
          <mxGeometry width="50" height="50" relative="1" as="geometry">
            <mxPoint x="645" y="830" as="sourcePoint" />
            <mxPoint x="690" y="830" as="targetPoint" />
          </mxGeometry>
        </mxCell>
        <mxCell id="aanhbF6bJ1fq_lnxb591-43" value="" style="endArrow=classic;html=1;rounded=0;edgeStyle=orthogonalEdgeStyle;entryX=0;entryY=0.5;entryDx=0;entryDy=0;exitX=0.998;exitY=0.633;exitDx=0;exitDy=0;exitPerimeter=0;" parent="1" source="aanhbF6bJ1fq_lnxb591-37" target="JYj8p6GNNAYbOqmJ5a7p-5" edge="1">
          <mxGeometry width="50" height="50" relative="1" as="geometry">
            <mxPoint x="655" y="840" as="sourcePoint" />
            <mxPoint x="700" y="840" as="targetPoint" />
            <Array as="points">
              <mxPoint x="510" y="978" />
              <mxPoint x="510" y="810" />
            </Array>
          </mxGeometry>
        </mxCell>
        <mxCell id="aanhbF6bJ1fq_lnxb591-44" value="" style="endArrow=classic;html=1;rounded=0;edgeStyle=orthogonalEdgeStyle;entryX=0;entryY=0.5;entryDx=0;entryDy=0;exitX=1;exitY=0.5;exitDx=0;exitDy=0;" parent="1" source="aanhbF6bJ1fq_lnxb591-36" target="JYj8p6GNNAYbOqmJ5a7p-5" edge="1">
          <mxGeometry width="50" height="50" relative="1" as="geometry">
            <mxPoint x="665" y="850" as="sourcePoint" />
            <mxPoint x="710" y="850" as="targetPoint" />
            <Array as="points">
              <mxPoint x="510" y="890" />
              <mxPoint x="510" y="810" />
            </Array>
          </mxGeometry>
        </mxCell>
      </root>
    </mxGraphModel>
  </diagram>
</mxfile>
